<svg width="24" height="29" viewBox="0 0 24 29" fill="none" xmlns="http://www.w3.org/2000/svg">
<g filter="url(#filter0_d_803_1561)">
<path d="M13 10H17.5L17 12H13V21H11V12H7V10H11V8.128C11 6.345 11.186 5.698 11.534 5.046C11.875 4.40181 12.4018 3.87501 13.046 3.534C13.698 3.186 14.345 3 16.128 3C16.65 3 17.108 3.05 17.5 3.15V5H16.128C14.804 5 14.401 5.078 13.99 5.298C13.686 5.46 13.46 5.686 13.298 5.99C13.078 6.401 13 6.804 13 8.128V10Z" fill="white"/>
</g>
<defs>
<filter id="filter0_d_803_1561" x="-4" y="0" width="32" height="32" filterUnits="userSpaceOnUse" color-interpolation-filters="sRGB">
<feFlood flood-opacity="0" result="BackgroundImageFix"/>
<feColorMatrix in="SourceAlpha" type="matrix" values="0 0 0 0 0 0 0 0 0 0 0 0 0 0 0 0 0 0 127 0" result="hardAlpha"/>
<feOffset dy="4"/>
<feGaussianBlur stdDeviation="2"/>
<feComposite in2="hardAlpha" operator="out"/>
<feColorMatrix type="matrix" values="0 0 0 0 0 0 0 0 0 0 0 0 0 0 0 0 0 0 0.25 0"/>
<feBlend mode="normal" in2="BackgroundImageFix" result="effect1_dropShadow_803_1561"/>
<feBlend mode="normal" in="SourceGraphic" in2="effect1_dropShadow_803_1561" result="shape"/>
</filter>
</defs>
</svg>
